<svg width="33" height="34" viewBox="0 0 33 34" fill="none" xmlns="http://www.w3.org/2000/svg">
    <path d="M16.0697 0C7.19121 0 0 7.44734 0 16.6421C0 25.8369 7.19121 33.2842 16.0697 33.2842C24.9483 33.2842 32.1395 25.8369 32.1395 16.6421C32.1395 7.44734 24.9483 0 16.0697 0ZM16.0697 4.16052C17.3955 4.16052 18.6409 4.53497 19.8461 4.95102C19.0025 5.78313 18.0383 6.53202 18.199 7.28092C18.3597 8.02981 20.971 7.82179 20.971 9.36118C20.971 10.4845 19.2837 10.8174 20.4487 12.1071C21.8548 13.5633 17.8776 16.1844 17.7972 18.0983C17.6767 21.5515 21.1719 22.134 23.9439 22.134C25.6312 22.134 26.0732 22.9661 25.9526 23.9646C23.7832 27.1682 20.0872 29.1653 16.0296 29.1653C14.5029 29.1653 13.0968 28.7908 11.7711 28.25C12.6549 26.4193 10.6462 22.7997 8.75801 21.6347C7.834 20.6778 5.86545 21.0523 4.74057 20.5946C4.379 19.4713 4.01743 18.3479 3.97726 17.0998C4.09778 16.8917 4.29866 16.7253 4.62005 16.7253C5.38336 16.7253 6.4279 18.3063 6.99034 18.1399C7.71347 17.9735 4.01743 12.6896 5.74493 11.6495C6.54842 11.1502 8.15539 13.2721 7.63313 10.9838C7.15103 8.86192 9.0794 9.81884 10.2846 9.27797C11.3292 8.82031 12.0925 7.57215 10.8069 6.82326C10.5659 6.69844 10.2846 6.40721 9.92306 6.03276C11.7309 4.90942 13.82 4.20213 16.0697 4.20213V4.16052ZM25.35 8.6955C26.0732 9.61081 26.6356 10.6093 27.1177 11.6911V11.8159C26.957 12.1071 26.6758 12.2735 26.2338 12.7312C25.109 13.8962 24.9483 11.8575 24.4662 11.4414C23.9439 10.9422 22.0557 11.5247 21.8147 10.9006C21.5334 10.1517 23.8234 9.15315 25.35 8.6955Z" fill="black"/>
</svg>
